<svg xmlns="http://www.w3.org/2000/svg" viewBox="0 0 48 48"><path fill="#388e3c" d="M39.5 42h-9c-1 0-1.9-.6-2.3-1.5-.4-.9-.2-2 .5-2.7l8.3-8.3v-3.9L21.3 41.3c-.5.5-1.1.7-1.8.7h-11c-1 0-1.9-.6-2.3-1.5-.4-.9-.2-2 .5-2.7L33.5 11h-3.9L10.3 30.3c-.7.7-1.8.9-2.7.5-1-.4-1.6-1.3-1.6-2.3v-11c0-.7.3-1.3.7-1.8l4.7-4.7h-3C7.1 11 6 9.9 6 8.5S7.1 6 8.5 6h9c1 0 1.9.6 2.3 1.5.4.9.2 2-.5 2.7L11 18.5v3.9L26.7 6.7c.5-.4 1.1-.7 1.8-.7h11c1 0 1.9.6 2.3 1.5.4.9.2 2-.5 2.7L14.5 37h3.9l19.3-19.3c.7-.7 1.8-.9 2.7-.5.9.4 1.5 1.3 1.5 2.3v11c0 .7-.3 1.3-.7 1.8L36.5 37h3c1.4 0 2.5 1.1 2.5 2.5S40.9 42 39.5 42z"/></svg>